<svg xmlns="http://www.w3.org/2000/svg" viewBox="401 226 210 210" fill="#d9ff3f">
  <path d="M477.046814,384.028564 C474.711731,385.204590 475.285156,387.414825 475.271820,389.325287 C475.215851,397.339691 475.196808,405.355286 475.274963,413.369385 C475.312134,417.181305 474.879639,421.008972 475.842560,424.804596 C476.541901,427.561493 475.026001,428.513245 472.488678,428.028412 C467.368927,427.050110 462.273163,427.046783 457.153564,428.040039 C454.075012,428.637360 453.379913,427.173004 453.859741,424.324768 C455.476685,414.727264 454.573944,405.097839 453.967407,395.480072 C453.854492,393.689148 452.957733,392.290222 451.430603,391.403809 C436.088165,382.498993 428.054993,368.086151 421.581879,352.352264 C417.545837,342.542023 415.716064,332.124420 415.672668,321.879974 C415.620209,309.490814 419.181763,297.368958 424.506104,286.001984 C435.218903,263.131073 452.578766,247.752457 476.269348,238.898392 C484.059662,235.986862 491.756775,235.121414 499.849640,234.296387 C508.608978,233.403397 517.128052,234.806305 525.687622,235.220383 C530.685669,235.462158 535.556763,239.022766 540.537170,240.981674 C549.254517,244.410431 557.160156,249.379593 564.259094,255.562958 C577.196594,266.831940 585.158691,281.253479 590.706482,297.209839 C591.398438,299.199921 591.540161,301.432892 594.405762,301.908051 C596.271851,302.217438 596.255676,303.852600 595.918457,305.504669 C594.710693,311.422882 595.380371,317.356201 595.491943,323.329407 C595.608459,329.567139 596.787109,336.592682 594.648376,342.038300 C587.285034,360.786896 578.663208,379.014099 561.508911,391.435944 C552.923218,397.653015 543.149780,401.431396 533.960510,406.366882 C526.441772,410.405121 518.654114,409.451630 511.339935,410.024689 C504.055298,410.595459 496.176880,409.613495 488.569366,409.153900 C486.415924,409.023834 484.219666,408.926697 482.181885,409.859558 C480.941132,410.427551 479.694672,411.145874 478.553589,409.858704 C477.611908,408.796448 478.308014,407.731964 478.743774,406.624115 C480.594177,401.919861 480.898895,397.010223 480.690582,392.001495 C480.566223,389.012024 479.802490,386.442505 477.644257,384.219910 C481.951263,382.728210 485.148102,385.455627 488.737396,386.482300 C519.935852,395.406250 554.052185,379.814758 567.588989,350.403259 C568.388611,348.665924 569.653442,346.940247 568.789917,344.749176 C566.207764,343.699982 563.517700,344.085297 560.893433,344.080597 C544.594299,344.051453 528.235962,344.949463 512.014221,343.835876 C498.776489,342.927155 488.703491,346.175049 480.499359,356.918732 C475.558685,363.388794 472.979248,376.583954 477.046814,384.028564 M513.634644,322.415741 C514.581482,322.716644 515.526489,323.273865 516.475403,323.280609 C534.766357,323.411316 553.057739,323.496918 571.349182,323.532257 C573.610962,323.536652 574.389954,322.320404 574.214478,319.933685 C573.187073,305.960022 568.485596,293.396057 560.253845,282.089111 C558.108459,279.142273 556.366699,278.746918 553.588501,281.650452 C542.434509,293.307404 531.065552,304.758636 519.774780,316.284668 C517.688538,318.414368 515.793396,320.771362 513.272461,321.421692 C514.698303,319.591400 515.978882,317.622437 517.573181,315.953094 C529.074463,303.910645 540.561096,291.851959 552.244812,279.987976 C554.810364,277.382874 554.605042,275.705536 552.067627,273.512207 C532.768799,256.830444 510.890900,251.037750 486.143463,258.216858 C445.972748,269.870178 423.635498,318.651917 447.806183,357.330963 C449.127411,359.445251 450.537994,361.762329 449.984894,364.280365 C448.676727,370.235962 449.465363,376.218170 449.435455,382.175018 C449.419525,385.342285 450.462280,388.450684 454.669373,391.035522 C454.669373,385.211273 454.675293,380.372375 454.668274,375.533508 C454.642365,357.745392 454.749542,339.955475 454.521118,322.169922 C454.418976,314.215637 455.400055,306.208679 453.692902,298.295868 C453.281464,296.388794 454.173157,295.350433 456.152069,294.681885 C461.696564,292.808838 466.651031,289.754639 471.269897,286.198029 C472.382080,285.341644 473.323578,284.390961 474.765930,285.149323 C476.515839,286.069366 475.996735,287.537598 475.687195,289.067596 C475.360962,290.680298 475.288025,292.365173 475.284363,294.018951 C475.240082,314.004211 475.211548,333.989594 475.243835,353.974823 C475.246338,355.524719 474.628662,357.286102 476.339233,358.961792 C479.086060,355.989746 481.366425,352.500732 484.537415,350.288269 C493.108856,344.307831 494.115814,336.021454 492.567688,326.846741 C491.879303,322.767212 493.323303,322.213623 496.891144,322.970154 C502.298859,324.116791 507.753448,324.353912 513.634644,322.415741 M575.324158,312.400543 C576.991821,323.975922 576.990417,323.814117 587.209045,323.723694 C591.783203,323.683197 593.091858,321.576233 592.609009,317.507568 C590.530273,299.991882 584.697327,283.945679 573.871277,269.883270 C572.697388,268.358459 571.751770,266.440887 569.499878,265.966125 C567.188843,267.092163 565.733643,269.183105 564.046448,270.975555 C559.127136,276.201996 559.162476,276.633972 563.167480,282.319214 C569.385315,291.145599 573.571960,300.826752 575.324158,312.400543 z" />
</svg>
